<svg width="52" height="52" viewBox="0 0 52 52" fill="none" xmlns="http://www.w3.org/2000/svg">
<path d="M26 0C11.6407 0 0 11.6407 0 26C0 40.3601 11.6407 52 26 52C40.3601 52 52 40.3601 52 26C52 11.6407 40.3601 0 26 0ZM26 48.8012C13.4558 48.8012 3.25 38.5442 3.25 25.9999C3.25 13.4557 13.4558 3.2499 26 3.2499C38.5442 3.2499 48.75 13.4558 48.75 25.9999C48.75 38.544 38.5442 48.8012 26 48.8012ZM35.1918 16.8082C34.5572 16.1736 33.5286 16.1736 32.8941 16.8082L26 23.7023L19.1059 16.8082C18.4714 16.1736 17.4428 16.1736 16.8074 16.8082C16.1728 17.4428 16.1728 18.4714 16.8074 19.1059L23.7014 26L16.8074 32.8941C16.1728 33.5278 16.1728 34.5581 16.8074 35.1919C17.4419 35.8264 18.4706 35.8264 19.1059 35.1919L26 28.2978L32.8941 35.1919C33.5286 35.8264 34.5572 35.8264 35.1918 35.1919C35.8264 34.5581 35.8264 33.5278 35.1918 32.8941L28.2977 26L35.1918 19.1059C35.8272 18.4706 35.8272 17.4419 35.1918 16.8082Z" fill="black"/>
</svg>
